<?xml version="1.0" encoding="iso-8859-1"?>
<!-- Generator: Adobe Illustrator 19.0.0, SVG Export Plug-In . SVG Version: 6.00 Build 0)  -->
<svg version="1.1" id="Layer_1" xmlns="http://www.w3.org/2000/svg" xmlns:xlink="http://www.w3.org/1999/xlink" x="0px" y="0px"
	 viewBox="0 0 303 62" style="enable-background:new 0 0 303 62;" xml:space="preserve">
<g id="XMLID_1_">
	<path id="XMLID_3_" style="fill:#047857;" d="M4.25,49.453V4.746h19.219l8.086,9.316l8.115-9.316h19.189v44.707H39.055V27.07
		l-7.5,8.643l-7.5-8.643v22.383H4.25z"/>
	<path id="XMLID_5_" style="fill:#047857;" d="M113.205,4.746L98.029,49.453H78.84L63.635,4.746h19.746l5.039,15.059l5.039-15.059
		H113.205z"/>
	<path id="XMLID_7_" d="M138.049,4.746h27.979c5.723,0,10.044,1.118,12.964,3.354c2.92,2.237,4.38,5.278,4.38,9.126
		c0,4.2-1.944,7.402-5.83,9.609c2.304,1.211,4.053,2.622,5.244,4.233c1.19,1.611,1.787,3.618,1.787,6.021
		c0,3.75-1.343,6.749-4.028,8.994c-2.686,2.246-6.45,3.369-11.294,3.369h-31.201V4.746z M157.854,13.74v8.701h0.498
		c2.148,0,3.672-0.327,4.57-0.981c0.898-0.654,1.348-1.782,1.348-3.384c0-2.89-1.739-4.336-5.215-4.336H157.854z M157.854,29.941
		v9.668h0.615c2.266,0,3.882-0.347,4.849-1.04c0.967-0.693,1.45-1.89,1.45-3.589c0-3.359-1.846-5.039-5.537-5.039H157.854z"/>
	<path id="XMLID_11_" d="M207.775,49.453H189.67V4.746h18.105V49.453z"/>
	<path id="XMLID_13_" d="M232.795,49.98c-5.586,0-10.19-1.685-13.813-5.054s-5.435-7.759-5.435-13.169
		c0-5.41,1.787-9.814,5.361-13.213s8.203-5.098,13.887-5.098c5.723,0,10.376,1.699,13.96,5.098s5.376,7.803,5.376,13.213
		c0,5.391-1.792,9.775-5.376,13.154C243.171,48.292,238.518,49.98,232.795,49.98z M232.795,27.363c-1.172,0-2.124,0.376-2.856,1.128
		c-0.732,0.752-1.099,1.724-1.099,2.915c0,1.191,0.366,2.158,1.099,2.9c0.732,0.743,1.685,1.113,2.856,1.113
		c1.19,0,2.157-0.371,2.9-1.113c0.742-0.742,1.113-1.709,1.113-2.9c0-1.211-0.371-2.187-1.113-2.93
		C234.952,27.734,233.985,27.363,232.795,27.363z"/>
	<path id="XMLID_16_" d="M295.93,14.238v27.656c0,6.035-1.538,10.454-4.614,13.257c-3.076,2.802-7.837,4.204-14.282,4.204
		c-8.398,0-15.362-1.699-20.889-5.098V38.232c4.316,4.2,9.121,6.299,14.414,6.299c4.882,0,7.324-1.504,7.324-4.512
		c0-0.293-0.029-0.605-0.088-0.938c-2.012,1.27-4.493,1.904-7.441,1.904c-4.376,0-7.856-1.211-10.444-3.633
		c-2.588-2.421-3.882-5.664-3.882-9.727c0-2.676,0.552-4.976,1.655-6.899c1.104-1.923,2.393-3.325,3.867-4.204
		s3.109-1.479,4.907-1.802c1.797-0.322,4.844-0.483,9.141-0.483H295.93z M277.795,24.141h-0.41c-4.043,0-6.064,1.475-6.064,4.424
		c0,1.211,0.361,2.173,1.084,2.886c0.722,0.713,1.68,1.069,2.871,1.069c1.055,0,1.894-0.253,2.52-0.762V24.141z"/>
</g>
</svg>
